<mxfile host="app.diagrams.net" modified="2023-05-03T06:40:16.086Z" agent="Mozilla/5.0 (Macintosh; Intel Mac OS X 10_15_7) AppleWebKit/605.1.15 (KHTML, like Gecko) Version/16.4 Safari/605.1.15" version="21.2.6" etag="6pFwf9wlYfIXRtB3vVfu" type="github">
  <diagram name="Page-1" id="2iGamGISunUHwhWocP32">
    <mxGraphModel>
      <root>
        <mxCell id="0" />
        <mxCell id="1" parent="0" />
      </root>
    </mxGraphModel>
  </diagram>
</mxfile>
